HIERARCHY
ROOT Model
{
	OFFSET 0 0 0
	CHANNELS 6 Xposition Yposition Zposition Zrotation Xrotation Yrotation
	JOINT Model1
	{
		OFFSET 0 -2.25479 2.99384
		CHANNELS 3 Zrotation Xrotation Yrotation
		JOINT Model2
		{
			OFFSET 12.111 0 0
			CHANNELS 3 Zrotation Xrotation Yrotation
			JOINT Model3
			{
				OFFSET 11.5502 0 0
				CHANNELS 3 Zrotation Xrotation Yrotation
				JOINT Model4
				{
					OFFSET 11.781 0 0
					CHANNELS 3 Zrotation Xrotation Yrotation
					JOINT Model5
					{
						OFFSET 20.0601 0 0
						CHANNELS 3 Zrotation Xrotation Yrotation
						JOINT Model6
						{
							OFFSET 11.1962 0 0
							CHANNELS 3 Zrotation Xrotation Yrotation
							End Site
							{
								OFFSET 0 0 0
							}
						}
					}
					JOINT Model7
					{
						OFFSET 10.8223 0.417534 3.51114
						CHANNELS 3 Zrotation Xrotation Yrotation
						JOINT Model8
						{
							OFFSET -6.07944 0 0
							CHANNELS 3 Zrotation Xrotation Yrotation
							JOINT Model9
							{
								OFFSET -0.277405 10.39 -0.051239
								CHANNELS 3 Zrotation Xrotation Yrotation
								JOINT Model10
								{
									OFFSET -3.43909 -0.282043 1.86679
									CHANNELS 3 Zrotation Xrotation Yrotation
									JOINT Model11
									{
										OFFSET 13.0269 0 0
										CHANNELS 3 Zrotation Xrotation Yrotation
										JOINT Model12
										{
											OFFSET 10.8866 0 0
											CHANNELS 3 Zrotation Xrotation Yrotation
											JOINT Model13
											{
												OFFSET 16.7317 0 0
												CHANNELS 3 Zrotation Xrotation Yrotation
												JOINT Model14
												{
													OFFSET 11.8292 0 0
													CHANNELS 3 Zrotation Xrotation Yrotation
													JOINT Model15
													{
														OFFSET 4.82751 -3.73566 -0.836517
														CHANNELS 3 Zrotation Xrotation Yrotation
														JOINT Model16
														{
															OFFSET 3.75311 -0.0582886 -0.0186462
															CHANNELS 3 Zrotation Xrotation Yrotation
															JOINT Model17
															{
																OFFSET 2.88689 0.0192337 0.014801
																CHANNELS 3 Zrotation Xrotation Yrotation
																End Site
																{
																	OFFSET 0 0 0
																}
															}
														}
													}
													JOINT Model18
													{
														OFFSET 9.72197 -3.06458 0.23877
														CHANNELS 3 Zrotation Xrotation Yrotation
														JOINT Model19
														{
															OFFSET 4.61131 0 0
															CHANNELS 3 Zrotation Xrotation Yrotation
															JOINT Model20
															{
																OFFSET 2.8969 -7.62939e-006 0
																CHANNELS 3 Zrotation Xrotation Yrotation
																End Site
																{
																	OFFSET 0 0 0
																}
															}
														}
													}
													JOINT Model21
													{
														OFFSET 9.54431 -0.745064 0.588928
														CHANNELS 3 Zrotation Xrotation Yrotation
														JOINT Model22
														{
															OFFSET 5.33978 0 0
															CHANNELS 3 Zrotation Xrotation Yrotation
															JOINT Model23
															{
																OFFSET 3.03619 7.62939e-006 0
																CHANNELS 3 Zrotation Xrotation Yrotation
																End Site
																{
																	OFFSET 0 0 0
																}
															}
														}
													}
													JOINT Model24
													{
														OFFSET 9.47758 1.51286 0.485107
														CHANNELS 3 Zrotation Xrotation Yrotation
														JOINT Model25
														{
															OFFSET 4.96136 7.62939e-006 0
															CHANNELS 3 Zrotation Xrotation Yrotation
															JOINT Model26
															{
																OFFSET 2.51965 0 0
																CHANNELS 3 Zrotation Xrotation Yrotation
																End Site
																{
																	OFFSET 0 0 0
																}
															}
														}
													}
													JOINT Model27
													{
														OFFSET 9.34247 3.34117 -0.239288
														CHANNELS 3 Zrotation Xrotation Yrotation
														JOINT Model28
														{
															OFFSET 3.28259 2.28882e-005 0
															CHANNELS 3 Zrotation Xrotation Yrotation
															JOINT Model29
															{
																OFFSET 2.1292 0 0
																CHANNELS 3 Zrotation Xrotation Yrotation
																End Site
																{
																	OFFSET 0 0 0
																}
															}
														}
													}
												}
											}
										}
									}
								}
							}
						}
					}
					JOINT Model30
					{
						OFFSET 10.8223 0.4179 -3.51108
						CHANNELS 3 Zrotation Xrotation Yrotation
						JOINT Model31
						{
							OFFSET 6.07944 0 0
							CHANNELS 3 Zrotation Xrotation Yrotation
							JOINT Model32
							{
								OFFSET 0.277405 -10.39 0.051239
								CHANNELS 3 Zrotation Xrotation Yrotation
								JOINT Model33
								{
									OFFSET 3.43909 0.282043 -1.86679
									CHANNELS 3 Zrotation Xrotation Yrotation
									JOINT Model34
									{
										OFFSET -13.0269 0 0
										CHANNELS 3 Zrotation Xrotation Yrotation
										JOINT Model35
										{
											OFFSET -10.8866 0 0
											CHANNELS 3 Zrotation Xrotation Yrotation
											JOINT Model36
											{
												OFFSET -16.7317 0 0
												CHANNELS 3 Zrotation Xrotation Yrotation
												JOINT Model37
												{
													OFFSET -11.8292 0 0
													CHANNELS 3 Zrotation Xrotation Yrotation
													JOINT Model38
													{
														OFFSET -4.82751 3.73566 0.836517
														CHANNELS 3 Zrotation Xrotation Yrotation
														JOINT Model39
														{
															OFFSET -3.75311 0.0582886 0.0186462
															CHANNELS 3 Zrotation Xrotation Yrotation
															JOINT Model40
															{
																OFFSET -2.88687 -0.0192337 -0.014801
																CHANNELS 3 Zrotation Xrotation Yrotation
																End Site
																{
																	OFFSET 0 0 0
																}
															}
														}
													}
													JOINT Model41
													{
														OFFSET -9.72198 3.06459 -0.23877
														CHANNELS 3 Zrotation Xrotation Yrotation
														JOINT Model42
														{
															OFFSET -4.6113 0 0
															CHANNELS 3 Zrotation Xrotation Yrotation
															JOINT Model43
															{
																OFFSET -2.89691 0 0
																CHANNELS 3 Zrotation Xrotation Yrotation
																End Site
																{
																	OFFSET 0 0 0
																}
															}
														}
													}
													JOINT Model44
													{
														OFFSET -9.54431 0.745064 -0.588928
														CHANNELS 3 Zrotation Xrotation Yrotation
														JOINT Model45
														{
															OFFSET -5.33978 0 0
															CHANNELS 3 Zrotation Xrotation Yrotation
															JOINT Model46
															{
																OFFSET -3.03619 -1.52588e-005 0
																CHANNELS 3 Zrotation Xrotation Yrotation
																End Site
																{
																	OFFSET 0 0 0
																}
															}
														}
													}
													JOINT Model47
													{
														OFFSET -9.4776 -1.51286 -0.485107
														CHANNELS 3 Zrotation Xrotation Yrotation
														JOINT Model48
														{
															OFFSET -4.96136 -1.52588e-005 0
															CHANNELS 3 Zrotation Xrotation Yrotation
															JOINT Model49
															{
																OFFSET -2.51965 0 0
																CHANNELS 3 Zrotation Xrotation Yrotation
																End Site
																{
																	OFFSET 0 0 0
																}
															}
														}
													}
													JOINT Model50
													{
														OFFSET -9.34247 -3.34118 0.239288
														CHANNELS 3 Zrotation Xrotation Yrotation
														JOINT Model51
														{
															OFFSET -3.28259 -2.28882e-005 0
															CHANNELS 3 Zrotation Xrotation Yrotation
															JOINT Model52
															{
																OFFSET -2.12921 0 0
																CHANNELS 3 Zrotation Xrotation Yrotation
																End Site
																{
																	OFFSET 0 0 0
																}
															}
														}
													}
												}
											}
										}
									}
								}
							}
						}
					}
				}
			}
		}
	}
	JOINT Model53
	{
		OFFSET 4.38025 -2.14632 -1.11517
		CHANNELS 3 Zrotation Xrotation Yrotation
		JOINT Model54
		{
			OFFSET 0 0 4.94998
			CHANNELS 3 Zrotation Xrotation Yrotation
			JOINT Model55
			{
				OFFSET 18.5642 0 0
				CHANNELS 3 Zrotation Xrotation Yrotation
				JOINT Model56
				{
					OFFSET 21.2884 0 0
					CHANNELS 3 Zrotation Xrotation Yrotation
					JOINT Model57
					{
						OFFSET 30.261 0 0
						CHANNELS 3 Zrotation Xrotation Yrotation
						JOINT Model58
						{
							OFFSET 11.7259 0 0
							CHANNELS 3 Zrotation Xrotation Yrotation
							JOINT Model59
							{
								OFFSET 10.682 0 0
								CHANNELS 3 Zrotation Xrotation Yrotation
								End Site
								{
									OFFSET 0 0 0
								}
							}
						}
					}
				}
			}
		}
	}
	JOINT Model60
	{
		OFFSET -4.38025 -2.14632 -1.11517
		CHANNELS 3 Zrotation Xrotation Yrotation
		JOINT Model61
		{
			OFFSET 0 0 -4.94998
			CHANNELS 3 Zrotation Xrotation Yrotation
			JOINT Model62
			{
				OFFSET -18.5642 0 0
				CHANNELS 3 Zrotation Xrotation Yrotation
				JOINT Model63
				{
					OFFSET -21.2884 0 0
					CHANNELS 3 Zrotation Xrotation Yrotation
					JOINT Model64
					{
						OFFSET -30.261 0 0
						CHANNELS 3 Zrotation Xrotation Yrotation
						JOINT Model65
						{
							OFFSET -11.7259 0 0
							CHANNELS 3 Zrotation Xrotation Yrotation
							JOINT Model66
							{
								OFFSET -10.682 0 0
								CHANNELS 3 Zrotation Xrotation Yrotation
								End Site
								{
									OFFSET 0 0 0
								}
							}
						}
					}
				}
			}
		}
	}
}
MOTION
Frames: 5
Frame Time: 0.033333
-429.089 175.071 -466.651 51.1778 -56.7891 60.9043 -180 4.29621e-031 -90 1.6438 0.312657 -0.426109 3.28994 0.612516 -0.861031 3.28994 0.612952 -0.861056 0.753149 -1.51792 17.5317 10.4957 2.04684 -9.31371 120.092 75.5343 58.4939 4.6406 27.0837 6.62102 -167.277 84.4999 48.8109 115.373 -15.7004 6.67169 1.31829e-005 -4.2867 2.99306e-005 -70.1585 -27.724 0.648414 3.06989e-007 -42.2205 1.24929e-007 16.8921 1.88614 12.6517 -72.0648 39.0385 39.3397 33.3638 2.10362 14.835 0.588947 0.308273 6.35287 -99.6409 81.413 100.35 -0.0181409 2.77812e-005 -0.117315 -0.124139 0.00241112 -0.799296 -79.8382 79.5773 80.5374 -0.00022578 -0.00022092 2.21532e-005 -0.000956231 0.000122898 -2.73766e-005 -66.7416 80.4058 67.2171 -0.000437137 1.5948e-005 -2.73616e-005 -0.00013661 -0.000109288 -5.46969e-005 -6.42159 81.2158 8.01779 -0.000218575 1.69041e-005 0.000212098 0.000901572 -0.000184807 -0.000218623 -59.9282 75.5373 58.5147 30.6264 26.0926 -3.60739 -167.277 84.4999 48.8109 114.217 -5.78438 -25.2848 8.63474e-006 -3.29719 2.91508e-005 -54.7843 -18.1652 0.524735 -3.25604e-006 -27.9192 2.1255e-006 27.6884 -5.20936 -20.9174 -72.0648 39.0385 39.3397 33.3638 2.10361 14.835 0.588946 0.308273 6.35287 -99.6409 81.413 100.35 -0.0181409 3.01084e-005 -0.117315 -0.124139 0.00241117 -0.799296 -79.8382 79.5773 80.5374 -0.000260636 -0.000218534 2.36104e-005 -0.000956212 0.00012304 -2.72666e-005 -66.7416 80.4058 67.2171 -0.00043712 1.49122e-005 -2.72809e-005 -0.000136588 -0.000109241 -5.45875e-005 -6.42159 81.2158 8.01779 -0.00021855 1.9599e-005 0.00021233 0.000901605 -0.000191218 -0.000218521 0.000811311 0.56661 89.91 -26.5431 -4.84652 -7.68317 8.28457e-007 -3.64966 -1.16339e-008 43.3953 1.05893 -0.00578213 -1.12455e-007 1.50722 -1.29357e-007 -65.3228 -1.68848 0.134583 -52.9575 4.20216 -0.295123 -180 -0.566579 -90.09 -48.8065 -4.38805 -1.97539 -1.28215e-006 -6.16705 -5.75333e-008 44.1316 2.99888 -0.0056433 3.48651e-007 4.41577 -1.59707e-007 -65.4231 -11.7143 5.82551 -35.4947 2.47548e-008 -1.97923e-007 
-423.845 175.563 -460.802 52.5799 -57.8883 60.8403 -180 4.29621e-031 -90 1.54053 0.421476 -0.151675 3.08229 0.838283 -0.314639 3.08229 0.83872 -0.314662 -1.23569 -1.62748 15.4273 14.5151 1.35932 -10.5782 120.092 75.5343 58.4939 3.1017 28.1562 7.54381 -167.277 84.4999 48.8109 118.63 -16.2301 8.73805 1.31733e-005 -4.26835 2.99299e-005 -72.6219 -27.7205 0.6577 3.06925e-007 -42.1985 1.24886e-007 17.0941 1.71832 11.3965 -72.0648 39.0385 39.3397 33.3638 2.10362 14.835 0.588947 0.308273 6.35287 -99.6409 81.413 100.35 -0.0181409 2.77812e-005 -0.117315 -0.124139 0.00241112 -0.799296 -79.8382 79.5773 80.5374 -0.00022578 -0.00022092 2.21532e-005 -0.000956231 0.000122898 -2.73766e-005 -66.7416 80.4058 67.2171 -0.000437137 1.5948e-005 -2.73616e-005 -0.00013661 -0.000109288 -5.46969e-005 -6.42159 81.2158 8.01779 -0.000218575 1.69041e-005 0.000212098 0.000901572 -0.000184807 -0.000218623 -59.9282 75.5373 58.5147 29.1523 25.1666 -3.10275 -167.277 84.4999 48.8109 112.304 -5.41741 -22.3936 8.14577e-006 -2.33688 2.91268e-005 -54.0039 -17.3241 0.517174 -3.30846e-006 -26.6563 2.10147e-006 28.3404 -5.04153 -19.7816 -72.0648 39.0385 39.3397 33.3638 2.10361 14.835 0.588946 0.308273 6.35287 -99.6409 81.413 100.35 -0.0181409 3.01084e-005 -0.117315 -0.124139 0.00241117 -0.799296 -79.8382 79.5773 80.5374 -0.000260636 -0.000218534 2.36104e-005 -0.000956212 0.00012304 -2.72666e-005 -66.7416 80.4058 67.2171 -0.00043712 1.49122e-005 -2.72809e-005 -0.000136588 -0.000109241 -5.45875e-005 -6.42159 81.2158 8.01779 -0.00021855 1.9599e-005 0.00021233 0.000901605 -0.000191218 -0.000218521 0.000811311 0.56661 89.91 -16.7106 -2.60508 -2.96447 8.28786e-007 -2.02867 -1.16176e-008 36.0726 -1.50123 0.190694 -1.21096e-007 -2.31985 -1.29419e-007 -60.1109 -1.93466 0.584009 -56.7023 3.30846 -0.554724 -180 -0.566579 -90.09 -47.721 -2.63561 -1.21109 -1.27961e-006 -3.639 -5.73159e-008 32.5262 1.36019 2.31639 3.41861e-007 1.98057 -1.59329e-007 -60.6666 -12.3162 7.02895 -35.4947 1.22139e-007 5.05703e-007 
-418.698 174.707 -454.839 55.3837 -58.6285 61.7311 -180 4.29621e-031 -90 1.43522 0.508539 0.0232469 2.87039 1.01706 0.0337502 2.8704 1.0175 0.0337283 -1.54301 -1.66494 13.1299 16.5314 0.609174 -10.9818 120.092 75.5343 58.4939 2.26893 28.7503 8.06094 -167.277 84.4999 48.8109 119.882 -16.6036 9.97047 1.32549e-005 -4.4241 2.99361e-005 -73.1723 -27.9104 0.660775 3.07755e-007 -42.4793 1.25444e-007 17.5041 1.67606 10.8552 -72.0648 39.0385 39.3397 33.3638 2.10362 14.835 0.588947 0.308273 6.35287 -99.6409 81.413 100.35 -0.0181409 2.77812e-005 -0.117315 -0.124139 0.00241112 -0.799296 -79.8382 79.5773 80.5374 -0.00022578 -0.00022092 2.21532e-005 -0.000956231 0.000122898 -2.73766e-005 -66.7416 80.4058 67.2171 -0.000437137 1.5948e-005 -2.73616e-005 -0.00013661 -0.000109288 -5.46969e-005 -6.42159 81.2158 8.01779 -0.000218575 1.69041e-005 0.000212098 0.000901572 -0.000184807 -0.000218623 -59.9282 75.5373 58.5147 28.6658 24.5899 -2.95628 -167.277 84.4999 48.8109 111.637 -5.40592 -20.6054 7.85486e-006 -1.76488 2.91164e-005 -53.1991 -16.7958 0.510387 -3.34082e-006 -25.8624 2.08715e-006 29.0503 -4.94853 -18.9376 -72.0648 39.0385 39.3397 33.3638 2.10361 14.835 0.588946 0.308273 6.35287 -99.6409 81.413 100.35 -0.0181409 3.01084e-005 -0.117315 -0.124139 0.00241117 -0.799296 -79.8382 79.5773 80.5374 -0.000260636 -0.000218534 2.36104e-005 -0.000956212 0.00012304 -2.72666e-005 -66.7416 80.4058 67.2171 -0.00043712 1.49122e-005 -2.72809e-005 -0.000136588 -0.000109241 -5.45875e-005 -6.42159 81.2158 8.01779 -0.00021855 1.9599e-005 0.00021233 0.000901605 -0.000191218 -0.000218521 0.000811311 0.56661 89.91 -9.14177 0.0693233 1.12744 8.2907e-007 -0.626103 -1.1611e-008 33.1393 -3.41768 0.202997 -1.276e-007 -5.18888 -1.29845e-007 -55.0202 -2.68568 1.42558 -60.6902 3.48816 -0.546728 -180 -0.566579 -90.09 -48.6354 -2.12957 -0.601238 -1.27895e-006 -2.98951 -5.72783e-008 30.719 0.328297 1.57232 3.37563e-007 0.434981 -1.59238e-007 -56.4084 -4.33588 2.44009 -35.4947 9.49021e-008 -4.09342e-007 
-413.96 173.043 -449.061 58.82 -58.9733 63.5568 -180 4.29621e-031 -90 1.31156 0.563057 0.142502 2.6219 1.12879 0.272098 2.6219 1.12923 0.272078 -0.239535 -1.51902 10.8721 16.6967 0.119537 -10.5066 120.092 75.5343 58.4939 2.82287 27.247 7.40909 -167.277 84.4999 48.8109 118.258 -17.0217 11.3425 1.33214e-005 -4.55111 2.99413e-005 -71.7611 -27.8682 0.655482 3.07597e-007 -42.4262 1.25338e-007 18.3994 1.80639 11.1192 -72.0648 39.0385 39.3397 33.3638 2.10362 14.835 0.588947 0.308273 6.35287 -99.6409 81.413 100.35 -0.0181409 2.77812e-005 -0.117315 -0.124139 0.00241112 -0.799296 -79.8382 79.5773 80.5374 -0.00022578 -0.00022092 2.21532e-005 -0.000956231 0.000122898 -2.73766e-005 -66.7416 80.4058 67.2171 -0.000437137 1.5948e-005 -2.73616e-005 -0.00013661 -0.000109288 -5.46969e-005 -6.42159 81.2158 8.01779 -0.000218575 1.69041e-005 0.000212098 0.000901572 -0.000184807 -0.000218623 -59.9282 75.5373 58.5147 29.1323 24.5462 -3.12781 -167.277 84.4999 48.8109 111.997 -5.53894 -20.4464 7.83849e-006 -1.73268 2.91159e-005 -52.9468 -17.3505 0.510256 -3.30692e-006 -26.6939 2.10216e-006 29.5772 -5.05908 -18.9998 -72.0648 39.0385 39.3397 33.3638 2.10361 14.835 0.588946 0.308273 6.35287 -99.6409 81.413 100.35 -0.0181409 3.01084e-005 -0.117315 -0.124139 0.00241117 -0.799296 -79.8382 79.5773 80.5374 -0.000260636 -0.000218534 2.36104e-005 -0.000956212 0.00012304 -2.72666e-005 -66.7416 80.4058 67.2171 -0.00043712 1.49122e-005 -2.72809e-005 -0.000136588 -0.000109241 -5.45875e-005 -6.42159 81.2158 8.01779 -0.00021855 1.9599e-005 0.00021233 0.000901605 -0.000191218 -0.000218521 0.000811311 0.56661 89.91 -5.27502 0.378249 2.77349 8.28887e-007 -1.53078 -1.16144e-008 36.2868 -3.1257 -0.00496039 -1.26618e-007 -4.75697 -1.2976e-007 -51.9322 -4.3182 2.85976 -62.4596 5.07962 0.0890118 -180 -0.566579 -90.09 -49.4797 -1.71754 -0.033376 -1.27842e-006 -2.46027 -5.72531e-008 37.566 -0.850359 -0.776881 3.32611e-007 -1.34659 -1.59277e-007 -56.4481 1.34047 -1.40677 -35.4947 5.03125e-007 1.51269e-007 
-409.918 171.529 -443.884 61.2075 -58.6746 65.6861 -180 4.29621e-031 -90 1.24419 0.5479 0.358452 2.48511 1.10301 0.704971 2.48511 1.10344 0.704952 0.800998 -1.22886 9.24647 16.0093 0.0675638 -9.85521 120.092 75.5343 58.4939 4.69714 24.3391 5.88442 -167.277 84.4999 48.8109 115.005 -17.6241 12.5097 1.3505e-005 -4.90117 2.99564e-005 -69.9171 -27.5983 0.646686 3.0644e-007 -42.0333 1.2456e-007 19.2086 2.00883 11.8305 -72.0648 39.0385 39.3397 33.3638 2.10362 14.835 0.588947 0.308273 6.35287 -99.6409 81.413 100.35 -0.0181409 2.77812e-005 -0.117315 -0.124139 0.00241112 -0.799296 -79.8382 79.5773 80.5374 -0.00022578 -0.00022092 2.21532e-005 -0.000956231 0.000122898 -2.73766e-005 -66.7416 80.4058 67.2171 -0.000437137 1.5948e-005 -2.73616e-005 -0.00013661 -0.000109288 -5.46969e-005 -6.42159 81.2158 8.01779 -0.000218575 1.69041e-005 0.000212098 0.000901572 -0.000184807 -0.000218623 -59.9282 75.5373 58.5147 30.141 24.5565 -3.49276 -167.277 84.4999 48.8109 112.365 -5.50481 -21.6913 8.03009e-006 -2.10948 2.91223e-005 -52.7816 -18.3679 0.512132 -3.24339e-006 -28.2197 2.13146e-006 28.9397 -5.14544 -19.7546 -72.0648 39.0385 39.3397 33.3638 2.10361 14.835 0.588946 0.308273 6.35287 -99.6409 81.413 100.35 -0.0181409 3.01084e-005 -0.117315 -0.124139 0.00241117 -0.799296 -79.8382 79.5773 80.5374 -0.000260636 -0.000218534 2.36104e-005 -0.000956212 0.00012304 -2.72666e-005 -66.7416 80.4058 67.2171 -0.00043712 1.49122e-005 -2.72809e-005 -0.000136588 -0.000109241 -5.45875e-005 -6.42159 81.2158 8.01779 -0.00021855 1.9599e-005 0.00021233 0.000901605 -0.000191218 -0.000218521 0.000811311 0.56661 89.91 -6.97905 -1.09065 1.58268 8.28639e-007 -2.7518 -1.16237e-008 45.4675 -2.02979 -0.00595597 -1.22927e-007 -3.12931 -1.29506e-007 -51.763 -5.14125 3.48313 -59.4583 5.36483 0.126261 -180 -0.566579 -90.09 -49.2816 1.07064 1.36536 -1.27445e-006 1.51468 -5.72203e-008 47.0042 -3.80014 -0.00596506 3.20215e-007 -5.78747 -1.60049e-007 -61.7897 0.415516 -0.954372 -36.0382 -0.178866 -0.0264772 
